<?xml version="1.0" encoding="UTF-8" standalone="no"?>
<!-- Created with Inkscape (http://www.inkscape.org/) -->

<svg
   width="128"
   height="128"
   viewBox="0 0 33.866666 33.866668"
   version="1.1"
   id="svg5"
   inkscape:version="1.1 (c68e22c387, 2021-05-23)"
   sodipodi:docname="Chalk_a.svg"
   inkscape:export-filename="C:\Users\bmene\Desktop\chalk.png"
   inkscape:export-xdpi="96"
   inkscape:export-ydpi="96"
   xmlns:inkscape="http://www.inkscape.org/namespaces/inkscape"
   xmlns:sodipodi="http://sodipodi.sourceforge.net/DTD/sodipodi-0.dtd"
   xmlns="http://www.w3.org/2000/svg"
   xmlns:svg="http://www.w3.org/2000/svg">
  <sodipodi:namedview
     id="namedview7"
     pagecolor="#ffffff"
     bordercolor="#666666"
     borderopacity="1.0"
     inkscape:pageshadow="2"
     inkscape:pageopacity="0.0"
     inkscape:pagecheckerboard="true"
     inkscape:document-units="mm"
     showgrid="false"
     units="px"
     inkscape:zoom="5.3929307"
     inkscape:cx="51.64168"
     inkscape:cy="62.211072"
     inkscape:window-width="1920"
     inkscape:window-height="1057"
     inkscape:window-x="-8"
     inkscape:window-y="-8"
     inkscape:window-maximized="1"
     inkscape:current-layer="layer1" />
  <defs
     id="defs2" />
  <g
     inkscape:groupmode="layer"
     id="layer2"
     inkscape:label="Layer 2" />
  <g
     inkscape:label="Layer 1"
     inkscape:groupmode="layer"
     id="layer1">
    <path
       id="path31551"
       style="fill:#f2f2f2;stroke:#000000;stroke-width:0.52916667;stroke-miterlimit:4;stroke-dasharray:none"
       d="m 7.7868705,19.10427 c 0.4189531,-0.467485 0.917819,-0.845796 1.4717711,-1.107236 0.5539521,-0.261443 1.1629884,-0.406015 1.8022904,-0.406015 2.557201,0 4.630223,2.313149 4.630223,5.166562 0,1.426709 -0.518256,2.718351 -1.356161,3.653315 m 0,0 c -0.837905,0.934965 -1.995459,1.513253 -3.274062,1.513253 -2.5572019,0 -4.6302219,-2.313153 -4.6302219,-5.166568 0,-1.426707 0.5182567,-2.718346 1.3561604,-3.653311 L 19.531672,7.4557696 c 0.418953,-0.4674822 0.91782,-0.845795 1.471771,-1.1072374 0.553953,-0.2614423 1.162991,-0.406014 1.802291,-0.406014 2.5572,7e-7 4.630222,2.3131487 4.630222,5.1665638 0,1.426707 -0.518254,2.718348 -1.35616,3.653314 l -11.744802,11.6485"
       inkscape:export-filename="C:\Users\bmene\Desktop\path31551.png"
       inkscape:export-xdpi="96"
       inkscape:export-ydpi="96" />
  </g>
</svg>
