<svg xmlns="http://www.w3.org/2000/svg" width="128" height="128" viewBox="0 0 33.867 33.867" xmlns:v="https://vecta.io/nano"><defs><linearGradient id="A" x1="16.087" x2="17.64" y1="20.377" y2="20.505" gradientUnits="userSpaceOnUse"><stop stop-color="#c8c8c8" offset="0"/><stop stop-color="#fff" offset="1"/></linearGradient></defs><path d="M19.924 13.618c-.794-.701.249-2.305 1.291-3.909-4.283.141-8.567.282-11.272 2.095s-3.834 5.298-4.426 7.606-.651 3.439-.981 5.04-.933 3.672-1.536 5.743l7.371.056 6.78.245c1.844.052 3.058.026 4.157-.202s2.082-.657 2.798-1.04 1.164-.722 1.692-1.326 1.135-1.476 1.504-2.321a5.58 5.58 0 0 0 .463-2.542c-.036-.878-.239-1.814-.441-2.757l-.629-2.958-.716-3.433c-2.63.201-5.261.403-6.055-.298z" fill="url(#A)" stroke="#000" stroke-width="1.323"/></svg>